<svg xmlns="http://www.w3.org/2000/svg" viewBox="0 0 1024 1024" role="img" aria-label="FoodTrace logo">
  <defs>
    <style>
      .light { fill: #39bf37; }
      .dark { fill: #006c39; }
      .word { fill: #39bf37; font-family: Arial, Helvetica, sans-serif; font-weight: 900; }
    </style>
  </defs>
  <g transform="translate(0 16)">
    <path class="light" d="M348 502c-55-61-74-140-49-231 21-76 79-152 148-211-29 78 13 143 89 210 38 33 76 65 99 101l-94 54c-24-32-65-64-101-96-33-30-56-62-61-105-28 76 16 130 75 194-55 41-86 79-106 84Z"/>
    <path class="light" d="M212 510h600c0 119-101 216-226 216H438c-125 0-226-97-226-216Z"/>
    <path class="light" d="M458 700h108v98H458z"/>
    <path class="dark" d="M590 254c73 84 106 180 88 274-19 99-91 162-204 203-73 27-124 72-154 132 13-111 56-183 130-228 74-44 154-77 194-143 27-44 31-92 22-139-17 65-71 102-134 139-80 47-142 98-164 192-48-143 26-235 148-300 65-34 100-72 74-130Z"/>
    <path class="light" d="M324 866c31-84 101-129 202-163 97-33 157-75 177-157 3 76-31 135-101 173-57 31-133 45-194 83-42 26-70 62-84 64Z"/>
  </g>
  <text class="word" x="512" y="965" text-anchor="middle" font-size="134">food trace</text>
</svg>
