<svg xmlns="http://www.w3.org/2000/svg" viewBox="0 0 1024 1024">
  <defs>
    <linearGradient id="bg" x1="126" y1="76" x2="898" y2="948" gradientUnits="userSpaceOnUse">
      <stop offset="0" stop-color="#fff7d1"/>
      <stop offset="0.48" stop-color="#f3fff0"/>
      <stop offset="1" stop-color="#dff5ff"/>
    </linearGradient>
    <linearGradient id="shield" x1="298" y1="186" x2="748" y2="856" gradientUnits="userSpaceOnUse">
      <stop offset="0" stop-color="#20b863"/>
      <stop offset="1" stop-color="#075a37"/>
    </linearGradient>
    <filter id="softShadow" x="-20%" y="-20%" width="140%" height="150%">
      <feDropShadow dx="0" dy="34" stdDeviation="36" flood-color="#06402a" flood-opacity="0.24"/>
    </filter>
  </defs>
  <rect width="1024" height="1024" rx="218" fill="url(#bg)"/>
  <circle cx="202" cy="216" r="74" fill="#ce1126" opacity="0.16"/>
  <circle cx="850" cy="212" r="94" fill="#fcd116" opacity="0.22"/>
  <circle cx="812" cy="812" r="118" fill="#006b3f" opacity="0.14"/>
  <g filter="url(#softShadow)">
    <path d="M512 140 806 268v242c0 184-116 326-294 392C334 836 218 694 218 510V268L512 140Z" fill="url(#shield)"/>
    <path d="M512 177 770 290v218c0 160-99 284-258 346-159-62-258-186-258-346V290l258-113Z" fill="none" stroke="#fcd116" stroke-width="18" opacity="0.95"/>
  </g>
  <g fill="#fff8e7">
    <rect x="336" y="294" width="78" height="78" rx="18"/>
    <rect x="442" y="294" width="78" height="78" rx="18"/>
    <rect x="336" y="400" width="78" height="78" rx="18"/>
  </g>
  <g fill="#0b6b42">
    <rect x="358" y="316" width="34" height="34" rx="8"/>
    <rect x="464" y="316" width="34" height="34" rx="8"/>
    <rect x="358" y="422" width="34" height="34" rx="8"/>
  </g>
  <g fill="#fff8e7">
    <rect x="550" y="300" width="28" height="28" rx="7"/><rect x="594" y="300" width="28" height="28" rx="7"/><rect x="638" y="300" width="28" height="28" rx="7"/>
    <rect x="550" y="344" width="28" height="28" rx="7"/><rect x="638" y="344" width="28" height="28" rx="7"/>
    <rect x="550" y="388" width="28" height="28" rx="7"/><rect x="594" y="388" width="28" height="28" rx="7"/><rect x="638" y="388" width="28" height="28" rx="7"/>
    <rect x="442" y="400" width="28" height="28" rx="7"/><rect x="486" y="400" width="28" height="28" rx="7"/>
    <rect x="530" y="444" width="28" height="28" rx="7"/><rect x="574" y="444" width="28" height="28" rx="7"/><rect x="618" y="444" width="28" height="28" rx="7"/>
  </g>
  <path d="M288 556c86-42 165-38 238 12 74 51 144 55 210 10" fill="none" stroke="#fcd116" stroke-width="26" stroke-linecap="round"/>
  <path d="M326 640c64-38 129-37 194 3 73 45 142 43 207-5" fill="none" stroke="#ffffff" stroke-width="18" stroke-linecap="round" opacity="0.85"/>
  <g transform="translate(384 580)">
    <circle cx="0" cy="58" r="54" fill="#ce1126"/>
    <path d="M-7 5c30-38 77-28 85 17-43 7-66 0-85-17Z" fill="#21a65b"/>
    <path d="M-10 6C1 31 18 47 43 56" fill="none" stroke="#075a37" stroke-width="10" stroke-linecap="round"/>
    <ellipse cx="-18" cy="62" rx="15" ry="21" fill="#9f0d1d" opacity="0.34"/>
  </g>
  <g transform="translate(545 620)">
    <ellipse cx="0" cy="58" rx="40" ry="72" fill="#f4b326"/>
    <path d="M-24 18c11-27 33-43 57-45 1 25-19 43-57 45Z" fill="#2ebf6c"/>
    <g fill="#d17818"><circle cx="-14" cy="28" r="8"/><circle cx="14" cy="28" r="8"/><circle cx="0" cy="48" r="8"/><circle cx="-14" cy="68" r="8"/><circle cx="14" cy="68" r="8"/><circle cx="0" cy="88" r="8"/></g>
  </g>
  <path d="M512 702 531 760h61l-49 36 19 58-50-36-50 36 19-58-49-36h61l19-58Z" fill="#fcd116" stroke="#d98b11" stroke-width="10" stroke-linejoin="round"/>
  <rect x="278" y="864" width="148" height="28" rx="14" fill="#ce1126"/>
  <rect x="438" y="864" width="148" height="28" rx="14" fill="#fcd116"/>
  <rect x="598" y="864" width="148" height="28" rx="14" fill="#006b3f"/>
</svg>
