<svg xmlns="http://www.w3.org/2000/svg" viewBox="0 0 680 480" width="1024" height="1024">
  <defs>
    <radialGradient id="bg" cx="50%" cy="50%" r="50%"><stop offset="0%" stop-color="#fff9e6"/><stop offset="100%" stop-color="#e8f5e9"/></radialGradient>
    <radialGradient id="shield" cx="50%" cy="40%" r="60%"><stop offset="0%" stop-color="#2ecc71"/><stop offset="100%" stop-color="#1a6b3a"/></radialGradient>
  </defs>
  <rect width="680" height="480" rx="24" fill="url(#bg)"/>
  <g transform="translate(340,210)" opacity="0.12">
    <line x1="0" y1="-180" x2="0" y2="-80" stroke="#f39c12" stroke-width="18"/>
    <line x1="127" y1="-127" x2="56" y2="-56" stroke="#f39c12" stroke-width="18"/>
    <line x1="180" y1="0" x2="80" y2="0" stroke="#f39c12" stroke-width="18"/>
    <line x1="127" y1="127" x2="56" y2="56" stroke="#f39c12" stroke-width="18"/>
    <line x1="0" y1="180" x2="0" y2="80" stroke="#f39c12" stroke-width="18"/>
    <line x1="-127" y1="127" x2="-56" y2="56" stroke="#f39c12" stroke-width="18"/>
    <line x1="-180" y1="0" x2="-80" y2="0" stroke="#f39c12" stroke-width="18"/>
    <line x1="-127" y1="-127" x2="-56" y2="-56" stroke="#f39c12" stroke-width="18"/>
  </g>
  <g transform="translate(340,210)">
    <path d="M0,-150 L125,-85 L125,55 Q125,148 0,178 Q-125,148 -125,55 L-125,-85 Z" fill="url(#shield)" opacity="0.95"/>
    <path d="M0,-150 L125,-85 L125,55 Q125,148 0,178 Q-125,148 -125,55 L-125,-85 Z" fill="none" stroke="#f1c40f" stroke-width="4"/>
    <g fill="white" opacity="0.92">
      <rect x="-70" y="-110" width="28" height="28" rx="4"/><rect x="-64" y="-104" width="16" height="16" rx="2" fill="#1a6b3a"/>
      <rect x="-26" y="-110" width="28" height="28" rx="4"/><rect x="-20" y="-104" width="16" height="16" rx="2" fill="#1a6b3a"/>
      <rect x="-70" y="-66" width="28" height="28" rx="4"/><rect x="-64" y="-60" width="16" height="16" rx="2" fill="#1a6b3a"/>
      <rect x="10" y="-110" width="8" height="8" rx="2"/><rect x="22" y="-110" width="8" height="8" rx="2"/><rect x="34" y="-110" width="8" height="8" rx="2"/>
      <rect x="10" y="-98" width="8" height="8" rx="2"/><rect x="34" y="-98" width="8" height="8" rx="2"/>
      <rect x="10" y="-86" width="8" height="8" rx="2"/><rect x="22" y="-86" width="8" height="8" rx="2"/><rect x="34" y="-86" width="8" height="8" rx="2"/>
      <rect x="-26" y="-66" width="8" height="8" rx="2"/><rect x="-14" y="-66" width="8" height="8" rx="2"/><rect x="-2" y="-66" width="8" height="8" rx="2"/><rect x="10" y="-66" width="8" height="8" rx="2"/>
      <rect x="-26" y="-54" width="8" height="8" rx="2"/><rect x="-2" y="-54" width="8" height="8" rx="2"/><rect x="22" y="-54" width="8" height="8" rx="2"/>
      <rect x="-26" y="-42" width="8" height="8" rx="2"/><rect x="-14" y="-42" width="8" height="8" rx="2"/><rect x="10" y="-42" width="8" height="8" rx="2"/><rect x="34" y="-42" width="8" height="8" rx="2"/>
    </g>
    <line x1="-80" y1="-20" x2="80" y2="-20" stroke="#f1c40f" stroke-width="2" opacity="0.6"/>
    <circle cx="-55" cy="30" r="22" fill="#e74c3c"/>
    <path d="M-55,8 Q-45,2 -48,14" fill="none" stroke="#27ae60" stroke-width="3" stroke-linecap="round"/>
    <ellipse cx="-62" cy="30" rx="8" ry="10" fill="#c0392b" opacity="0.4"/>
    <ellipse cx="0" cy="28" rx="12" ry="20" fill="#f39c12"/>
    <ellipse cx="-4" cy="16" rx="3" ry="3" fill="#e67e22"/><ellipse cx="4" cy="16" rx="3" ry="3" fill="#e67e22"/>
    <ellipse cx="-6" cy="24" rx="3" ry="3" fill="#e67e22"/><ellipse cx="0" cy="22" rx="3" ry="3" fill="#e67e22"/><ellipse cx="6" cy="24" rx="3" ry="3" fill="#e67e22"/>
    <ellipse cx="-4" cy="32" rx="3" ry="3" fill="#e67e22"/><ellipse cx="4" cy="32" rx="3" ry="3" fill="#e67e22"/>
    <ellipse cx="-6" cy="40" rx="3" ry="3" fill="#e67e22"/><ellipse cx="0" cy="38" rx="3" ry="3" fill="#e67e22"/><ellipse cx="6" cy="40" rx="3" ry="3" fill="#e67e22"/>
    <path d="M-8,8 Q0,0 8,8" fill="#27ae60"/><path d="M-10,10 Q-14,0 -8,8" fill="#2ecc71"/>
    <rect x="38" y="12" width="34" height="18" rx="9" fill="white"/>
    <rect x="54" y="12" width="18" height="18" rx="9" fill="#e74c3c"/>
    <rect x="38" y="12" width="18" height="18" rx="9" fill="white" stroke="#e74c3c" stroke-width="1"/>
    <line x1="55" y1="12" x2="55" y2="30" stroke="#e74c3c" stroke-width="1.5"/>
    <rect x="42" y="38" width="28" height="16" rx="8" fill="#3498db"/>
    <rect x="55" y="38" width="15" height="16" rx="8" fill="#2980b9"/>
    <line x1="55" y1="38" x2="55" y2="54" stroke="white" stroke-width="1.5"/>
    <path d="M-88,60 Q-60,20 -40,70 Q-65,80 -88,60Z" fill="#27ae60" opacity="0.85"/>
    <path d="M88,50 Q62,15 44,65 Q65,78 88,50Z" fill="#f39c12" opacity="0.85"/>
    <polygon points="0,85 6,103 24,103 10,114 15,132 0,121 -15,132 -10,114 -24,103 -6,103" fill="#f1c40f" stroke="#e67e22" stroke-width="1"/>
  </g>
  <text x="340" y="408" text-anchor="middle" font-family="Georgia,serif" font-size="36" font-weight="700" fill="#1a6b3a" letter-spacing="4">FOODTRACE GH</text>
  <text x="340" y="436" text-anchor="middle" font-family="Arial,sans-serif" font-size="13" fill="#e67e22" letter-spacing="3">SCAN IT · TRACE IT · TRUST IT</text>
  <rect x="180" y="452" width="100" height="6" rx="3" fill="#cc0000"/>
  <rect x="290" y="452" width="100" height="6" rx="3" fill="#ffd700"/>
  <rect x="400" y="452" width="100" height="6" rx="3" fill="#006b3f"/>
</svg>
